<?xml version="1.0" standalone="no"?>
<!DOCTYPE svg PUBLIC "-//W3C//DTD SVG 20010904//EN"
 "http://www.w3.org/TR/2001/REC-SVG-20010904/DTD/svg10.dtd">
<svg version="1.0" xmlns="http://www.w3.org/2000/svg"
 width="52.000000pt" height="52.000000pt" viewBox="0 0 52.000000 52.000000"
 preserveAspectRatio="xMidYMid meet">

<g transform="translate(0.000000,52.000000) scale(0.100000,-0.100000)"
fill="#000000" stroke="none">
<path d="M124 507 c-10 -28 0 -82 16 -82 11 0 15 12 15 44 0 44 -19 68 -31 38z"/>
<path d="M364 507 c-10 -28 0 -82 16 -82 11 0 15 12 15 44 0 44 -19 68 -31 38z"/>
<path d="M20 460 c-19 -19 -20 -33 -20 -220 0 -187 1 -201 20 -220 19 -19 33
-20 240 -20 207 0 221 1 240 20 19 19 20 33 20 220 0 187 -1 201 -20 220 -11
11 -33 20 -49 20 -26 0 -30 -4 -33 -31 -2 -18 -11 -37 -20 -43 -26 -16 -52 4
-56 43 l-3 31 -79 0 -79 0 -3 -31 c-6 -64 -70 -64 -76 0 -3 27 -7 31 -33 31
-16 0 -38 -9 -49 -20z m458 -267 l-3 -148 -215 0 -215 0 -3 148 -3 147 221 0
221 0 -3 -147z"/>
<path d="M215 260 l-39 -40 84 0 84 0 -39 40 c-21 22 -42 40 -45 40 -3 0 -24
-18 -45 -40z"/>
<path d="M221 121 c19 -22 36 -39 39 -39 3 0 20 17 39 39 l33 39 -72 0 -72 0
33 -39z"/>
</g>
</svg>
